<svg width="98" height="32" viewBox="0 0 98 32" fill="none" xmlns="http://www.w3.org/2000/svg">
<g clip-path="url(#clip0_405_169)">
<path d="M46.8835 0.530273V25.358H42.8311L42.5476 22.9406C41.1942 25.0389 39.0262 25.733 36.8942 25.733C31.7399 25.733 27.8672 22.3223 27.8672 16.5582C27.8672 10.5188 31.6681 7.38342 36.7864 7.38342C38.635 7.38342 41.5136 8.37669 42.5476 10.1757V0.530273H46.8835ZM32.203 16.5861C32.203 19.6377 34.4069 21.7359 37.1777 21.7359C38.5152 21.6987 39.7853 21.1417 40.7182 20.1833C41.651 19.225 42.1728 17.9409 42.1728 16.6041C42.1728 15.2673 41.651 13.9832 40.7182 13.0248C39.7853 12.0665 38.5152 11.5094 37.1777 11.4722C34.4069 11.4762 32.203 13.4228 32.203 16.5861Z" fill="white"/>
<path d="M54.7373 18.1459C55.0248 20.3119 56.9052 21.8756 59.9635 21.8756C61.5605 21.8756 63.6606 21.2733 64.6547 20.2441L67.4495 22.9766C65.6009 24.8953 62.5786 25.8168 59.9116 25.8168C53.855 25.8368 50.2617 22.091 50.2617 16.4785C50.2617 11.1491 53.8909 7.30371 59.5762 7.30371C65.4412 7.30371 69.1024 10.9258 68.4276 18.1339L54.7373 18.1459ZM64.2634 14.5558C63.98 12.282 62.2033 11.1451 59.716 11.1451C57.3684 11.1451 55.448 12.282 54.8092 14.5558H64.2634Z" fill="white"/>
<path d="M76.0656 0.530273V25.358H71.7656V0.530273H76.0656Z" fill="white"/>
<path d="M83.5675 18.1459C83.8509 20.3119 85.7354 21.8756 88.7897 21.8756C90.3867 21.8756 92.4867 21.2733 93.4849 20.2441L96.2557 22.9766C94.4071 24.8953 91.3848 25.8168 88.7218 25.8168C82.6772 25.8168 79.0879 22.091 79.0879 16.4785C79.0879 11.1491 82.7131 7.30371 88.4024 7.30371C94.2674 7.30371 97.9285 10.9258 97.2498 18.1339L83.5675 18.1459ZM93.0936 14.5558C92.8101 12.282 91.0295 11.1451 88.5421 11.1451C86.1985 11.1451 84.2781 12.282 83.6393 14.5558H93.0936Z" fill="white"/>
<path d="M25.5564 13.072C25.4845 19.5023 21.5399 25.9286 12.7804 25.9286C4.02079 25.9286 -0.015625 19.6419 -0.015625 13.1079C-0.015625 6.57385 4.1765 0.00390625 12.7804 0.00390625C21.3842 0.00390625 25.6282 6.56985 25.5564 13.072ZM4.61967 13.1797C4.72747 17.2645 6.93134 21.6324 12.7963 21.6324C18.6613 21.6324 20.8652 17.2445 20.937 13.1438C21.0049 8.9513 18.6613 4.26419 12.7963 4.26419C6.93134 4.26419 4.51187 8.98322 4.61967 13.1757V13.1797Z" fill="white"/>
<path d="M5.34961 28.1663C7.87687 27.9948 10.2843 28.0067 12.7437 28.0028C15.2031 27.9988 17.6665 27.9708 20.1858 28.4017C16.9319 33.1885 8.36395 33.3002 5.34961 28.1743V28.1663Z" fill="white"/>
</g>
<defs>
<clipPath id="clip0_405_169">
<rect width="97.3333" height="32" fill="white"/>
</clipPath>
</defs>
</svg>
