<svg width="598" height="684" viewBox="0 0 598 684" fill="none" xmlns="http://www.w3.org/2000/svg">
<g opacity="0.04">
<path d="M505.506 673.368H265.494C331.661 607.131 440.712 605.327 505.499 673.368H505.506Z" fill="white"/>
<path d="M706.829 252.571C705.04 414.358 605.82 576.145 385.931 576.145C166.042 576.145 64.1465 417.935 64.1465 253.466C64.1465 88.9959 169.619 -76.3682 385.931 -76.3682C602.243 -76.3682 708.618 88.9959 706.829 252.571ZM180.344 255.254C183.027 358.052 238.446 467.989 385.931 467.989C533.416 467.989 588.843 357.15 590.624 254.352C592.413 148.879 533.416 30.8856 385.931 30.8856C238.446 30.8856 177.661 149.774 180.344 255.254Z" fill="white"/>
</g>
</svg>
