<svg width="80" height="32" viewBox="0 0 80 32" fill="none" xmlns="http://www.w3.org/2000/svg">
<g clip-path="url(#clip0_1009_5062)">
<path d="M10.6667 5.33366H28V8.00033H10.6667V5.33366ZM6 8.66699C5.46957 8.66699 4.96086 8.45628 4.58579 8.08121C4.21071 7.70613 4 7.19743 4 6.66699C4 6.13656 4.21071 5.62785 4.58579 5.25278C4.96086 4.87771 5.46957 4.66699 6 4.66699C6.53043 4.66699 7.03914 4.87771 7.41421 5.25278C7.78929 5.62785 8 6.13656 8 6.66699C8 7.19743 7.78929 7.70613 7.41421 8.08121C7.03914 8.45628 6.53043 8.66699 6 8.66699ZM6 18.0003C5.46957 18.0003 4.96086 17.7896 4.58579 17.4145C4.21071 17.0395 4 16.5308 4 16.0003C4 15.4699 4.21071 14.9612 4.58579 14.5861C4.96086 14.211 5.46957 14.0003 6 14.0003C6.53043 14.0003 7.03914 14.211 7.41421 14.5861C7.78929 14.9612 8 15.4699 8 16.0003C8 16.5308 7.78929 17.0395 7.41421 17.4145C7.03914 17.7896 6.53043 18.0003 6 18.0003ZM6 27.2003C5.46957 27.2003 4.96086 26.9896 4.58579 26.6145C4.21071 26.2395 4 25.7308 4 25.2003C4 24.6699 4.21071 24.1612 4.58579 23.7861C4.96086 23.411 5.46957 23.2003 6 23.2003C6.53043 23.2003 7.03914 23.411 7.41421 23.7861C7.78929 24.1612 8 24.6699 8 25.2003C8 25.7308 7.78929 26.2395 7.41421 26.6145C7.03914 26.9896 6.53043 27.2003 6 27.2003ZM10.6667 14.667H28V17.3337H10.6667V14.667ZM10.6667 24.0003H28V26.667H10.6667V24.0003Z" fill="#727272"/>
</g>
<g clip-path="url(#clip1_1009_5062)">
<path d="M52 4H62.6667V14.6667H52V4ZM52 17.3333H62.6667V28H52V17.3333ZM65.3333 4H76V14.6667H65.3333V4ZM65.3333 17.3333H76V28H65.3333V17.3333ZM68 6.66667V12H73.3333V6.66667H68ZM68 20V25.3333H73.3333V20H68ZM54.6667 6.66667V12H60V6.66667H54.6667ZM54.6667 20V25.3333H60V20H54.6667Z" fill="white"/>
</g>
<defs>
<clipPath id="clip0_1009_5062">
<rect width="32" height="32" fill="white"/>
</clipPath>
<clipPath id="clip1_1009_5062">
<rect width="32" height="32" fill="white" transform="translate(48)"/>
</clipPath>
</defs>
</svg>
