<svg width="34" height="34" viewBox="0 0 34 34" fill="none" xmlns="http://www.w3.org/2000/svg">
<g clip-path="url(#clip0_894_1314)">
<path d="M17 0C13.6377 0 10.3509 0.997033 7.55531 2.86502C4.75968 4.733 2.58075 7.38804 1.29406 10.4944C0.00736586 13.6007 -0.329291 17.0189 0.326658 20.3165C0.982607 23.6142 2.6017 26.6433 4.97919 29.0208C7.35668 31.3983 10.3858 33.0174 13.6835 33.6734C16.9811 34.3293 20.3993 33.9926 23.5056 32.706C26.612 31.4193 29.267 29.2403 31.135 26.4447C33.003 23.6491 34 20.3623 34 17C33.9951 12.4928 32.2025 8.17163 29.0154 4.98457C25.8284 1.79751 21.5072 0.00487487 17 0V0ZM17 31.1667C14.1981 31.1667 11.4591 30.3358 9.12943 28.7792C6.79973 27.2225 4.98396 25.01 3.91171 22.4214C2.83947 19.8327 2.55893 16.9843 3.10555 14.2362C3.65217 11.4882 5.00142 8.9639 6.98266 6.98265C8.96391 5.00141 11.4882 3.65217 14.2362 3.10554C16.9843 2.55892 19.8327 2.83947 22.4214 3.91171C25.01 4.98395 27.2225 6.79973 28.7792 9.12942C30.3358 11.4591 31.1667 14.1981 31.1667 17C31.1625 20.756 29.6687 24.3569 27.0128 27.0128C24.3569 29.6687 20.756 31.1625 17 31.1667Z" fill="#404040"/>
<path d="M16.9993 14.168H15.5827C15.207 14.168 14.8466 14.3172 14.5809 14.5829C14.3153 14.8486 14.166 15.2089 14.166 15.5846C14.166 15.9604 14.3153 16.3207 14.5809 16.5864C14.8466 16.852 15.207 17.0013 15.5827 17.0013H16.9993V25.5013C16.9993 25.877 17.1486 26.2374 17.4143 26.503C17.68 26.7687 18.0403 26.918 18.416 26.918C18.7917 26.918 19.1521 26.7687 19.4177 26.503C19.6834 26.2374 19.8327 25.877 19.8327 25.5013V17.0013C19.8327 16.2499 19.5342 15.5292 19.0028 14.9978C18.4715 14.4665 17.7508 14.168 16.9993 14.168Z" fill="#404040"/>
<path d="M17 11.332C18.1736 11.332 19.125 10.3806 19.125 9.20703C19.125 8.03343 18.1736 7.08203 17 7.08203C15.8264 7.08203 14.875 8.03343 14.875 9.20703C14.875 10.3806 15.8264 11.332 17 11.332Z" fill="#404040"/>
</g>
<defs>
<clipPath id="clip0_894_1314">
<rect width="34" height="34" fill="white"/>
</clipPath>
</defs>
</svg>
