<svg width="34" height="35" viewBox="0 0 34 35" fill="none" xmlns="http://www.w3.org/2000/svg">
<g clip-path="url(#clip0_899_1231)">
<path d="M26.9167 6.36523H7.08333C5.20541 6.36748 3.40504 7.11448 2.07714 8.44238C0.749249 9.77027 0.00224946 11.5706 0 13.4486L0 21.9486C0.00224946 23.8265 0.749249 25.6269 2.07714 26.9548C3.40504 28.2827 5.20541 29.0297 7.08333 29.0319H26.9167C28.7946 29.0297 30.595 28.2827 31.9229 26.9548C33.2508 25.6269 33.9977 23.8265 34 21.9486V13.4486C33.9977 11.5706 33.2508 9.77027 31.9229 8.44238C30.595 7.11448 28.7946 6.36748 26.9167 6.36523ZM5.66667 24.7819C5.38648 24.7819 5.11258 24.6988 4.87961 24.5431C4.64664 24.3875 4.46506 24.1662 4.35784 23.9074C4.25061 23.6485 4.22256 23.3637 4.27722 23.0889C4.33188 22.814 4.46681 22.5616 4.66493 22.3635C4.86306 22.1654 5.11548 22.0305 5.39029 21.9758C5.66509 21.9211 5.94994 21.9492 6.2088 22.0564C6.46766 22.1636 6.68892 22.3452 6.84458 22.5782C7.00025 22.8111 7.08333 23.085 7.08333 23.3652C7.08333 23.741 6.93408 24.1013 6.6684 24.367C6.40272 24.6326 6.04239 24.7819 5.66667 24.7819ZM5.66667 13.4486C5.38648 13.4486 5.11258 13.3655 4.87961 13.2098C4.64664 13.0542 4.46506 12.8329 4.35784 12.574C4.25061 12.3152 4.22256 12.0303 4.27722 11.7555C4.33188 11.4807 4.46681 11.2283 4.66493 11.0302C4.86306 10.832 5.11548 10.6971 5.39029 10.6425C5.66509 10.5878 5.94994 10.6158 6.2088 10.7231C6.46766 10.8303 6.68892 11.0119 6.84458 11.2448C7.00025 11.4778 7.08333 11.7517 7.08333 12.0319C7.08333 12.4076 6.93408 12.768 6.6684 13.0336C6.40272 13.2993 6.04239 13.4486 5.66667 13.4486ZM17 23.3652C15.8792 23.3652 14.7836 23.0329 13.8518 22.4102C12.9199 21.7876 12.1936 20.9026 11.7647 19.8671C11.3358 18.8317 11.2236 17.6923 11.4422 16.5931C11.6609 15.4938 12.2006 14.4841 12.9931 13.6916C13.7856 12.8991 14.7953 12.3594 15.8945 12.1408C16.9937 11.9221 18.1331 12.0344 19.1685 12.4632C20.204 12.8921 21.089 13.6185 21.7117 14.5503C22.3343 15.4822 22.6667 16.5778 22.6667 17.6986C22.6667 19.2015 22.0696 20.6428 21.0069 21.7055C19.9442 22.7682 18.5029 23.3652 17 23.3652ZM28.3333 24.7819C28.0531 24.7819 27.7792 24.6988 27.5463 24.5431C27.3133 24.3875 27.1317 24.1662 27.0245 23.9074C26.9173 23.6485 26.8892 23.3637 26.9439 23.0889C26.9985 22.814 27.1335 22.5616 27.3316 22.3635C27.5297 22.1654 27.7821 22.0305 28.057 21.9758C28.3318 21.9211 28.6166 21.9492 28.8755 22.0564C29.1343 22.1636 29.3556 22.3452 29.5112 22.5782C29.6669 22.8111 29.75 23.085 29.75 23.3652C29.75 23.741 29.6007 24.1013 29.3351 24.367C29.0694 24.6326 28.7091 24.7819 28.3333 24.7819ZM28.3333 13.4486C28.0531 13.4486 27.7792 13.3655 27.5463 13.2098C27.3133 13.0542 27.1317 12.8329 27.0245 12.574C26.9173 12.3152 26.8892 12.0303 26.9439 11.7555C26.9985 11.4807 27.1335 11.2283 27.3316 11.0302C27.5297 10.832 27.7821 10.6971 28.057 10.6425C28.3318 10.5878 28.6166 10.6158 28.8755 10.7231C29.1343 10.8303 29.3556 11.0119 29.5112 11.2448C29.6669 11.4778 29.75 11.7517 29.75 12.0319C29.75 12.4076 29.6007 12.768 29.3351 13.0336C29.0694 13.2993 28.7091 13.4486 28.3333 13.4486ZM19.8333 17.6986C19.8333 18.2589 19.6672 18.8067 19.3558 19.2727C19.0445 19.7386 18.602 20.1018 18.0843 20.3162C17.5665 20.5307 16.9969 20.5868 16.4472 20.4775C15.8976 20.3681 15.3928 20.0983 14.9965 19.702C14.6003 19.3058 14.3304 18.8009 14.2211 18.2513C14.1118 17.7017 14.1679 17.132 14.3823 16.6143C14.5968 16.0966 14.9599 15.6541 15.4259 15.3427C15.8918 15.0314 16.4396 14.8652 17 14.8652C17.7514 14.8652 18.4721 15.1637 19.0035 15.6951C19.5348 16.2265 19.8333 16.9471 19.8333 17.6986Z" fill="#A3A3A3"/>
</g>
<defs>
<clipPath id="clip0_899_1231">
<rect width="34" height="34" fill="white" transform="translate(0 0.697266)"/>
</clipPath>
</defs>
</svg>
