<svg width="34" height="35" viewBox="0 0 34 35" fill="none" xmlns="http://www.w3.org/2000/svg">
<path fill-rule="evenodd" clip-rule="evenodd" d="M21.4478 7.71842C21.6307 8.43174 21.705 9.14658 21.7764 9.83556L21.8433 10.4622C22.0991 12.5535 22.0991 22.8274 21.8433 24.9339L21.7764 25.5833L21.7752 25.5955C21.7117 26.2471 21.6458 26.9216 21.4581 27.6411C20.9599 29.3431 19.6317 30.4473 18.1237 30.4473C18.0761 30.4473 18.0285 30.4473 17.9749 30.4457C17.1421 30.4457 16.2364 29.9347 15.7233 29.489L10.7216 25.3232H8.15316C6.17064 25.3232 4.71909 23.8889 4.45584 21.6699C4.15245 19.451 4.21193 15.6439 4.45584 13.6273C4.74289 11.5268 6.26286 10.0713 8.15316 10.0713H10.7216L15.6281 5.9663C16.22 5.45222 17.2641 4.94423 18.0896 4.94728C19.5693 4.94728 20.9495 6.01193 21.4478 7.71842ZM25.7091 9.56332C26.3025 9.14809 27.1146 9.29715 27.5206 9.89792C28.9572 12.0135 29.75 14.7832 29.75 17.6973C29.75 20.6113 28.9572 23.3809 27.5206 25.4966C27.2766 25.854 26.8781 26.0685 26.4513 26.0685C26.1851 26.0685 25.9277 25.9863 25.7091 25.8312C25.1202 25.4114 24.9744 24.581 25.3834 23.9788C26.5211 22.3027 27.1473 20.0715 27.1473 17.6973C27.1473 15.3215 26.5211 13.0919 25.3834 11.4158C24.9744 10.8135 25.1202 9.98309 25.7091 9.56332Z" fill="#A3A3A3"/>
</svg>
