<svg width="32" height="32" viewBox="0 0 32 32" fill="none" xmlns="http://www.w3.org/2000/svg">
<path opacity="0.4" d="M22.234 2.66699H9.77761C5.23836 2.66699 2.6665 5.23885 2.6665 9.7781V22.2226C2.6665 26.7618 5.23836 29.3337 9.77761 29.3337H22.234C26.7732 29.3337 29.3332 26.7618 29.3332 22.2226V9.7781C29.3332 5.23885 26.7732 2.66699 22.234 2.66699Z" fill="white"/>
<path d="M9.82488 12.4922C9.22044 12.4922 8.72266 12.99 8.72266 13.6062V22.7677C8.72266 23.3722 9.22044 23.8699 9.82488 23.8699C10.4412 23.8699 10.939 23.3722 10.939 22.7677V13.6062C10.939 12.99 10.4412 12.4922 9.82488 12.4922Z" fill="white"/>
<path d="M16.0471 8.11816C15.4426 8.11816 14.9448 8.61594 14.9448 9.23223V22.767C14.9448 23.3715 15.4426 23.8693 16.0471 23.8693C16.6634 23.8693 17.1611 23.3715 17.1611 22.767V9.23223C17.1611 8.61594 16.6634 8.11816 16.0471 8.11816Z" fill="white"/>
<path d="M22.1868 17.3271C21.5705 17.3271 21.0728 17.825 21.0728 18.4413V22.7671C21.0728 23.3717 21.5705 23.8694 22.1749 23.8694C22.7912 23.8694 23.289 23.3717 23.289 22.7671V18.4413C23.289 17.825 22.7912 17.3271 22.1868 17.3271Z" fill="white"/>
</svg>
