<svg width="46" height="56" viewBox="0 0 46 56" fill="none" xmlns="http://www.w3.org/2000/svg">
<g filter="url(#filter0_d_424_213)">
<g clip-path="url(#clip0_424_213)">
<path d="M41.4395 19.7822C41.3275 29.2028 35.5489 38.6178 22.7415 38.6178C9.9342 38.6178 3.99219 29.4101 3.99219 19.8355C3.99219 10.2608 10.1416 0.634766 22.7415 0.634766C35.2882 0.634766 41.5368 10.259 41.4395 19.7822ZM10.7841 19.9382C10.9401 25.9237 14.1672 32.324 22.7581 32.324C31.3489 32.324 34.576 25.8705 34.6898 19.8868C34.7926 13.7453 31.3581 6.87536 22.7581 6.87536C14.158 6.87536 10.6097 13.7985 10.7676 19.9382H10.7841Z" fill="#0B0B0B"/>
<path d="M11.8398 41.9038C15.5387 41.6561 19.0668 41.6708 22.6702 41.6689C26.2864 41.7258 29.8825 41.6176 33.574 42.2359C28.8013 49.2619 16.2564 49.4197 11.8454 41.9038H11.8398Z" fill="#0B0B0B"/>
</g>
</g>
<defs>
<filter id="filter0_d_424_213" x="0" y="0.630859" width="45.4336" height="54.8916" filterUnits="userSpaceOnUse" color-interpolation-filters="sRGB">
<feFlood flood-opacity="0" result="BackgroundImageFix"/>
<feColorMatrix in="SourceAlpha" type="matrix" values="0 0 0 0 0 0 0 0 0 0 0 0 0 0 0 0 0 0 127 0" result="hardAlpha"/>
<feOffset dy="4"/>
<feGaussianBlur stdDeviation="2"/>
<feComposite in2="hardAlpha" operator="out"/>
<feColorMatrix type="matrix" values="0 0 0 0 0 0 0 0 0 0 0 0 0 0 0 0 0 0 0.25 0"/>
<feBlend mode="normal" in2="BackgroundImageFix" result="effect1_dropShadow_424_213"/>
<feBlend mode="normal" in="SourceGraphic" in2="effect1_dropShadow_424_213" result="shape"/>
</filter>
<clipPath id="clip0_424_213">
<rect width="37.4345" height="46.8916" fill="white" transform="translate(4 0.630859)"/>
</clipPath>
</defs>
</svg>
