<svg width="34" height="43" viewBox="0 0 34 43" fill="none" xmlns="http://www.w3.org/2000/svg">
<g clip-path="url(#clip0_894_1252)">
<path d="M34.0039 17.4389C33.9022 26.0168 28.6537 34.5898 17.0214 34.5898C5.38904 34.5898 -0.0078125 26.2056 -0.0078125 17.4873C-0.0078125 8.769 5.57744 0.00390625 17.0214 0.00390625C28.4169 0.00390625 34.0922 8.76733 34.0039 17.4389ZM6.16097 17.5809C6.30269 23.0311 9.2337 28.8589 17.0364 28.8589C24.8391 28.8589 27.7701 22.9826 27.8734 17.5341C27.9668 11.9419 24.8474 5.68635 17.0364 5.68635C9.22536 5.68635 6.00258 11.9903 6.14597 17.5809H6.16097Z" fill="white"/>
<path d="M7.12109 37.5811C10.4806 37.3555 13.685 37.3689 16.9578 37.3672C20.2423 37.419 23.5084 37.3204 26.8612 37.8835C22.5264 44.281 11.1325 44.4247 7.1261 37.5811H7.12109Z" fill="white"/>
</g>
<defs>
<clipPath id="clip0_894_1252">
<rect width="34" height="42.6977" fill="white"/>
</clipPath>
</defs>
</svg>
