<svg width="509" height="742" viewBox="0 0 509 742" fill="none" xmlns="http://www.w3.org/2000/svg">
<g clip-path="url(#clip0_405_105)">
<path d="M682.101 234.844C680.061 406.933 574.783 578.922 341.453 578.922C108.122 578.922 -0.132812 410.721 -0.132812 235.816C-0.132812 60.911 111.901 -114.933 341.453 -114.933C570.034 -114.933 683.874 60.8774 682.101 234.844ZM123.606 237.693C126.448 347.034 185.241 463.95 341.753 463.95C498.266 463.95 557.058 346.062 559.132 236.754C561.005 124.565 498.433 -0.93261 341.753 -0.93261C185.074 -0.93261 120.429 125.537 123.305 237.693H123.606Z" fill="#F5F5F5"/>
<path d="M142.834 638.956C210.221 634.43 274.498 634.699 340.147 634.665C406.029 635.704 471.544 633.726 538.797 645.022C451.846 773.369 223.297 776.252 142.934 638.956H142.834Z" fill="#F5F5F5"/>
</g>
<defs>
<clipPath id="clip0_405_105">
<rect width="682" height="856.592" fill="white" transform="translate(0 -115)"/>
</clipPath>
</defs>
</svg>
