<svg width="34" height="35" viewBox="0 0 34 35" fill="none" xmlns="http://www.w3.org/2000/svg">
<g clip-path="url(#clip0_894_1328)">
<path d="M2.2767 26.1973C3.4485 28.231 6.04718 28.9298 8.08093 27.7579C8.08233 27.7571 8.08366 27.7564 8.08505 27.7556L8.71544 27.3914C9.90545 28.4096 11.2733 29.1992 12.7501 29.7204V30.4473C12.7501 32.7945 14.6529 34.6973 17.0001 34.6973C19.3473 34.6973 21.2501 32.7945 21.2501 30.4473V29.7205C22.7271 29.1984 24.095 28.4079 25.2847 27.3887L25.918 27.7542C27.9522 28.9278 30.5527 28.2301 31.7263 26.1958C32.8999 24.1616 32.2023 21.561 30.168 20.3874L29.539 20.0248C29.8221 18.4841 29.8221 16.9047 29.539 15.3639L30.168 15.0013C32.2022 13.8277 32.8999 11.2272 31.7263 9.19295C30.5527 7.15873 27.9523 6.461 25.918 7.63459L25.2876 7.9987C24.0964 6.98182 22.7276 6.19371 21.2501 5.67402V4.94727C21.2501 2.60007 19.3473 0.697266 17.0001 0.697266C14.6529 0.697266 12.7501 2.60007 12.7501 4.94727V5.67402C11.2731 6.19617 9.90518 6.98667 8.71544 8.00587L8.0822 7.63898C6.04791 6.46531 3.44744 7.16304 2.27384 9.19727C1.10024 11.2315 1.79791 13.832 3.8322 15.0056L4.4612 15.3683C4.17804 16.909 4.17804 18.4884 4.4612 20.0291L3.8322 20.3918C1.80355 21.5685 1.10814 24.1639 2.2767 26.1973ZM17.0001 12.0306C20.1297 12.0306 22.6667 14.5677 22.6667 17.6973C22.6667 20.8269 20.1297 23.3639 17.0001 23.3639C13.8705 23.3639 11.3334 20.8269 11.3334 17.6973C11.3334 14.5677 13.8705 12.0306 17.0001 12.0306Z" fill="#A3A3A3"/>
</g>
<defs>
<clipPath id="clip0_894_1328">
<rect width="34" height="34" fill="white" transform="translate(0 0.697266)"/>
</clipPath>
</defs>
</svg>
