<svg width="34" height="35" viewBox="0 0 34 35" fill="none" xmlns="http://www.w3.org/2000/svg">
<g clip-path="url(#clip0_894_1263)">
<path d="M2.27572 26.1973C3.44752 28.231 6.0462 28.9298 8.07996 27.7579C8.08135 27.7571 8.08268 27.7564 8.08407 27.7556L8.71447 27.3914C9.90447 28.4096 11.2723 29.1992 12.7491 29.7204V30.4473C12.7491 32.7945 14.6519 34.6973 16.9991 34.6973C19.3463 34.6973 21.2491 32.7945 21.2491 30.4473V29.7205C22.7261 29.1984 24.094 28.4079 25.2838 27.3887L25.917 27.7542C27.9512 28.9278 30.5518 28.2301 31.7254 26.1958C32.899 24.1616 32.2013 21.561 30.167 20.3874L29.538 20.0248C29.8212 18.4841 29.8212 16.9047 29.538 15.3639L30.167 15.0013C32.2012 13.8277 32.899 11.2272 31.7254 9.19295C30.5518 7.15873 27.9513 6.461 25.917 7.63459L25.2866 7.9987C24.0954 6.98182 22.7267 6.19371 21.2491 5.67402V4.94727C21.2491 2.60007 19.3463 0.697266 16.9991 0.697266C14.6519 0.697266 12.7491 2.60007 12.7491 4.94727V5.67402C11.2721 6.19617 9.9042 6.98667 8.71447 8.00587L8.08122 7.63898C6.04693 6.46531 3.44646 7.16304 2.27286 9.19727C1.09927 11.2315 1.79693 13.832 3.83122 15.0056L4.46022 15.3683C4.17706 16.909 4.17706 18.4884 4.46022 20.0291L3.83122 20.3918C1.80257 21.5685 1.10717 24.1639 2.27572 26.1973ZM16.9991 12.0306C20.1287 12.0306 22.6658 14.5677 22.6658 17.6973C22.6658 20.8269 20.1287 23.3639 16.9991 23.3639C13.8695 23.3639 11.3325 20.8269 11.3325 17.6973C11.3325 14.5677 13.8695 12.0306 16.9991 12.0306Z" fill="#A3A3A3"/>
</g>
<defs>
<clipPath id="clip0_894_1263">
<rect width="34" height="34" fill="white" transform="translate(0 0.697266)"/>
</clipPath>
</defs>
</svg>
